<svg width="256" height="256" viewBox="0 0 256 256" fill="none" xmlns="http://www.w3.org/2000/svg">
<rect width="256" height="256" fill="url(#paint0_linear_5_39166)"/>
<rect opacity="0.12" x="30" y="30" width="196" height="196" fill="white"/>
<g clip-path="url(#clip0_5_39166)">
<path d="M162.615 155H93.3846C84.9016 155 78 148.098 78 139.615V70.3846C78 61.9016 84.9016 55 93.3846 55H162.615C171.098 55 178 61.9016 178 70.3846V139.615C178 148.098 171.098 155 162.615 155ZM93.3846 62.6924C89.143 62.6924 85.6922 66.1432 85.6922 70.3848V139.616C85.6922 143.857 89.143 147.308 93.3846 147.308H162.615C166.857 147.308 170.308 143.857 170.308 139.616V70.3846C170.308 66.143 166.857 62.6922 162.615 62.6922L93.3846 62.6924Z" fill="white"/>
<path d="M139.627 135.742C138.643 135.742 137.658 135.367 136.907 134.616L108.323 106.032L84.5658 129.789C83.0637 131.29 80.6285 131.29 79.1266 129.789C77.6246 128.287 77.6246 125.851 79.1266 124.349L105.604 97.8726C107.105 96.3705 109.541 96.3705 111.043 97.8726L142.347 129.176C143.849 130.678 143.849 133.114 142.347 134.616C141.596 135.367 140.611 135.742 139.627 135.742Z" fill="white"/>
<path d="M174.154 141.423C173.17 141.423 172.185 141.048 171.434 140.297L144.862 113.724L133.158 125.427C131.656 126.929 129.221 126.929 127.719 125.427C126.217 123.925 126.217 121.49 127.719 119.988L142.142 105.565C143.644 104.063 146.079 104.063 147.581 105.565L176.874 134.857C178.375 136.359 178.375 138.795 176.874 140.297C176.123 141.048 175.138 141.423 174.154 141.423Z" fill="white"/>
<path d="M145.954 96.9539C138.565 96.9539 132.554 90.9428 132.554 83.5539C132.554 76.1651 138.565 70.1539 145.954 70.1539C153.343 70.1539 159.354 76.1651 159.354 83.5539C159.354 90.9428 153.343 96.9539 145.954 96.9539ZM145.954 77.8461C142.807 77.8461 140.246 80.4067 140.246 83.5539C140.246 86.7012 142.807 89.2617 145.954 89.2617C149.101 89.2617 151.662 86.7012 151.662 83.5539C151.662 80.4067 149.101 77.8461 145.954 77.8461Z" fill="white"/>
</g>
<rect x="67" y="175" width="24" height="24" rx="3" stroke="white" stroke-width="4"/>
<rect x="100" y="175" width="24" height="24" rx="3" stroke="white" stroke-width="4"/>
<rect x="133" y="175" width="24" height="24" rx="3" stroke="white" stroke-width="4"/>
<rect x="166" y="175" width="24" height="24" rx="3" stroke="white" stroke-width="4"/>
<path d="M200.75 97.4166C200.893 97.4158 201.034 97.4431 201.166 97.497C201.298 97.551 201.418 97.6304 201.519 97.7308L208.019 104.231C208.221 104.434 208.334 104.708 208.334 104.995C208.334 105.281 208.221 105.555 208.019 105.758L201.519 112.258C201.312 112.436 201.045 112.529 200.773 112.518C200.5 112.507 200.241 112.394 200.049 112.201C199.856 112.009 199.743 111.75 199.732 111.477C199.721 111.205 199.814 110.938 199.992 110.731L205.723 105L199.992 99.2691C199.84 99.1183 199.736 98.9257 199.693 98.7157C199.65 98.5057 199.671 98.2878 199.752 98.0895C199.833 97.8913 199.971 97.7215 200.149 97.6017C200.327 97.4819 200.536 97.4175 200.75 97.4166Z" fill="white"/>
<path d="M55.25 112.583C55.1074 112.584 54.9661 112.557 54.8341 112.503C54.7021 112.449 54.582 112.37 54.4808 112.269L47.9808 105.769C47.779 105.566 47.6658 105.292 47.6658 105.005C47.6658 104.719 47.779 104.445 47.9808 104.242L54.4808 97.7417C54.688 97.5642 54.9546 97.4715 55.2273 97.482C55.4999 97.4925 55.7586 97.6056 55.9515 97.7985C56.1444 97.9914 56.2575 98.2501 56.268 98.5227C56.2785 98.7954 56.1858 99.062 56.0083 99.2692L50.2775 105L56.0083 110.731C56.1604 110.882 56.2644 111.074 56.3071 111.284C56.3497 111.494 56.3292 111.712 56.248 111.91C56.1668 112.109 56.0287 112.279 55.851 112.398C55.6734 112.518 55.4642 112.582 55.25 112.583Z" fill="white"/>
<defs>
<linearGradient id="paint0_linear_5_39166" x1="-4.76837e-07" y1="128" x2="343.627" y2="128" gradientUnits="userSpaceOnUse">
<stop offset="0.10082" stop-color="#662D8C"/>
<stop offset="1" stop-color="#EC1E79"/>
</linearGradient>
<clipPath id="clip0_5_39166">
<rect width="100" height="100" fill="white" transform="translate(78 55)"/>
</clipPath>
</defs>
</svg>
